<svg width="398.573" height="310.28" viewBox="0 0 298.93 232.71" class="displayed_equation" xmlns="http://www.w3.org/2000/svg">
  <defs>
    <clipPath id="svg923174389174tikz_00003a">
      <path d="M 15.734375 15.730469 L 283 15.730469 L 283 147 L 15.734375 147 Z M 15.734375 15.730469" />
    </clipPath>
    <clipPath id="svg923174389174tikz_00003b">
      <path d="M 15.734375 132 L 283 132 L 283 216.972656 L 15.734375 216.972656 Z M 15.734375 132" />
    </clipPath>
    <clipPath id="svg923174389174tikz_00003c">
      <path d="M 15.734375 131 L 283.203125 131 L 283.203125 133 L 15.734375 133 Z M 15.734375 131" />
    </clipPath>
  </defs>
  <g clip-path="url(#svg923174389174tikz_00003a)">
    <path d="M 282.988281 146.753906 L 15.734375 146.753906 L 15.734375 36.972656 C 15.734375 25.234375 25.238281 15.730469 36.976563 15.730469 L 261.746094 15.730469 C 273.484375 15.730469 282.988281 25.234375 282.988281 36.972656 Z M 282.988281 146.753906" fill="#abe0f4" />
  </g>
  <g clip-path="url(#svg923174389174tikz_00003b)">
    <path d="M 261.746094 216.84375 L 36.976563 216.84375 C 25.238281 216.84375 15.734375 207.34375 15.734375 195.601563 L 15.734375 132.003906 L 282.988281 132.003906 L 282.988281 195.601563 C 282.988281 207.34375 273.484375 216.84375 261.746094 216.84375 Z M 261.746094 216.84375" fill="#c8de7f" />
  </g>
  <path d="M 2166.796875 1025.967187 L 1554.023438 1025.967187 L 1554.023438 1255.185937 L 2167.226563 1255.185937 C 2113.476563 1255.185937 2113.476563 1025.967187 2166.796875 1025.967187 Z M 2166.796875 1025.967187" transform="matrix(.1 0 0 -.1 0 232.71)" fill="#e9d7bb" stroke-width="8.6" stroke="#010101" stroke-miterlimit="10" />
  <path d="M 1696.796875 1041.045312 C 1641.757813 1041.045312 1597.03125 1085.732812 1597.03125 1140.771875 C 1597.03125 1195.85 1641.757813 1240.5375 1696.796875 1240.5375 L 2175.820313 1240.5375 C 2179.6875 1240.5375 2183.125 1243.975 2183.125 1247.88125 L 2183.125 1262.490625 C 2183.125 1266.357812 2179.6875 1269.795312 2175.820313 1269.795312 L 933.085938 1269.795312 C 861.71875 1269.795312 804.101563 1212.178125 804.101563 1140.771875 C 804.101563 1069.404687 861.71875 1011.7875 933.085938 1011.7875 L 2175.820313 1011.7875 C 2179.6875 1011.7875 2183.125 1015.225 2183.125 1019.092187 L 2183.125 1033.740625 C 2183.125 1037.607812 2179.6875 1041.045312 2175.820313 1041.045312 Z M 1696.796875 1041.045312" transform="matrix(.1 0 0 -.1 0 232.71)" fill="#fee73c" stroke-width="8.6" stroke="#010101" stroke-miterlimit="10" />
  <path d="M 2175.820313 1270.225 L 1695.078125 1270.225 C 1623.710938 1270.225 1566.09375 1212.607812 1566.09375 1141.240625 C 1566.09375 1069.834375 1623.710938 1012.217187 1695.078125 1012.217187 L 2175.820313 1012.217187 C 2179.6875 1012.217187 2183.125 1015.654687 2183.125 1019.521875 L 2183.125 1034.13125 C 2183.125 1038.0375 2179.6875 1041.475 2175.820313 1041.475 L 1696.796875 1041.475 C 1641.757813 1041.475 1597.03125 1086.1625 1597.03125 1141.240625 C 1597.03125 1196.279687 1641.757813 1240.967187 1696.796875 1240.967187 L 2175.820313 1240.967187 C 2179.6875 1240.967187 2183.125 1244.44375 2183.125 1248.271875 L 2183.125 1262.920312 C 2183.125 1266.7875 2179.6875 1270.225 2175.820313 1270.225 Z M 2175.820313 1270.225" transform="matrix(.1 0 0 -.1 0 232.71)" fill="#f8bf34" stroke-width="8.6" stroke="#010101" stroke-miterlimit="10" />
  <path d="M210.832031 112.4375L166.671875 112.4375C166.367188 112.4375 166.109375 112.179688 166.109375 111.878906 166.109375 111.578125 166.367188 111.320313 166.671875 111.320313L210.832031 111.320313C211.132813 111.320313 211.390625 111.578125 211.390625 111.878906 211.390625 112.179688 211.132813 112.4375 210.832031 112.4375zM209.539063 115.664063L165.335938 115.664063C165.035156 115.664063 164.777344 115.40625 164.777344 115.105469 164.777344 114.804688 165.035156 114.546875 165.335938 114.546875L209.5 114.546875C209.800781 114.546875 210.058594 114.804688 210.058594 115.105469 210.058594 115.449219 209.84375 115.664063 209.539063 115.664063zM208.726563 118.933594L164.519531 118.933594C164.21875 118.933594 163.960938 118.671875 163.960938 118.371094 163.960938 118.070313 164.21875 117.8125 164.519531 117.8125L208.679688 117.8125C208.980469 117.8125 209.242188 118.070313 209.242188 118.371094 209.285156 118.671875 209.023438 118.933594 208.726563 118.933594zM209.539063 122.15625L165.335938 122.15625C165.035156 122.15625 164.777344 121.898438 164.777344 121.597656 164.777344 121.296875 165.035156 121.039063 165.335938 121.039063L209.5 121.039063C209.800781 121.039063 210.058594 121.296875 210.058594 121.597656 210.058594 121.898438 209.84375 122.15625 209.539063 122.15625zM210.832031 125.382813L166.671875 125.382813C166.367188 125.382813 166.109375 125.121094 166.109375 124.820313 166.109375 124.523438 166.367188 124.261719 166.671875 124.261719L210.832031 124.261719C211.132813 124.261719 211.390625 124.523438 211.390625 124.820313 211.390625 125.167969 211.132813 125.382813 210.832031 125.382813zM210.832031 125.382813" fill="#cab394" />
  <path d="M 154.972656 108.394531 L 89.007813 108.394531 C 88.191406 108.394531 87.546875 109.042969 87.546875 109.859375 C 87.546875 110.675781 88.191406 111.320313 89.007813 111.320313 L 154.972656 111.320313 C 155.789063 111.320313 156.433594 110.675781 156.433594 109.859375 C 156.433594 109.085938 155.789063 108.394531 154.972656 108.394531 Z M 154.972656 108.394531" fill="#fff2a6" />
  <g clip-path="url(#svg923174389174tikz_00003c)">
    <path d="M 157.34375 1007.060937 L 2829.882813 1007.060937" transform="matrix(.1 0 0 -.1 0 232.71)" fill="none" stroke-width="8.6" stroke="#010101" stroke-miterlimit="10" />
  </g>
  <path d="M 1493.398438 565.889062 L 1493.398438 244.209375" transform="matrix(.1 0 0 -.1 0 232.71)" fill="none" stroke-width="8.6" stroke-linecap="round" stroke-linejoin="round" stroke="#000" />
  <path d="M 146.160156 178.53125 L 149.339844 177.152344 L 152.566406 178.53125 L 149.339844 170.960938 Z M 146.160156 178.53125" />
  <path d="M 1493.398438 846.670312 L 1493.398438 1168.310937" transform="matrix(.1 0 0 -.1 0 232.71)" fill="none" stroke-width="8.6" stroke-linecap="round" stroke-linejoin="round" stroke="#000" />
  <path d="M152.566406 145.636719L149.339844 147.011719 146.160156 145.636719 149.339844 153.203125zM144.273438 118.898438L144.574219 117.078125 138.816406 117.078125 138.75 117.414063C139.652344 117.414063 139.777344 117.570313 139.621094 118.339844L138.628906 123.117188C138.460938 123.941406 138.191406 124.074219 137.421875 124.074219L137.355469 124.410156 140.570313 124.410156 140.621094 124.074219C139.933594 124.074219 139.574219 123.996094 139.574219 123.605469 139.574219 123.507813 139.585938 123.371094 139.621094 123.226563L140.101563 120.839844 141.304688 120.839844C142.265625 120.839844 142.441406 120.964844 142.265625 121.910156L142.632813 121.910156 143.144531 119.3125 142.789063 119.3125C142.597656 120.203125 142.363281 120.414063 141.414063 120.414063L140.179688 120.414063 140.78125 117.515625 142.453125 117.515625C143.902344 117.515625 143.949219 117.839844 143.9375 118.898438L144.273438 118.898438M144.273438 199.800781L144.574219 197.980469 138.816406 197.980469 138.75 198.316406C139.652344 198.316406 139.777344 198.472656 139.621094 199.242188L138.628906 204.015625C138.460938 204.839844 138.191406 204.976563 137.421875 204.976563L137.355469 205.308594 140.570313 205.308594 140.621094 204.976563C139.933594 204.976563 139.574219 204.898438 139.574219 204.507813 139.574219 204.40625 139.585938 204.273438 139.621094 204.128906L140.101563 201.738281 141.304688 201.738281C142.265625 201.738281 142.441406 201.863281 142.265625 202.8125L142.632813 202.8125 143.144531 200.210938 142.789063 200.210938C142.597656 201.105469 142.363281 201.316406 141.414063 201.316406L140.179688 201.316406 140.78125 198.414063 142.453125 198.414063C143.902344 198.414063 143.949219 198.738281 143.9375 199.800781L144.273438 199.800781M252.472656 147.433594L252.113281 147.433594C251.679688 148.761719 251.476563 149.03125 249.75 149.019531L248.3125 149.019531 248.3125 145.949219 249.617188 145.949219C250.640625 145.949219 250.867188 146.074219 250.867188 146.988281L251.222656 146.988281 251.222656 144.402344 250.867188 144.402344C250.867188 145.304688 250.640625 145.515625 249.617188 145.515625L248.3125 145.515625 248.3125 142.683594 249.949219 142.683594C251.320313 142.683594 251.601563 142.894531 251.769531 144.011719L252.125 144.011719 252.058594 142.179688 246.203125 142.179688 246.203125 142.515625C247.105469 142.515625 247.285156 142.691406 247.285156 143.542969L247.285156 148.191406C247.285156 149.0625 247.105469 149.175781 246.203125 149.175781L246.203125 149.511719 252.160156 149.511719 252.472656 147.433594M256.335938 148.816406C256.402344 149.308594 256.515625 149.566406 257.007813 149.566406 257.574219 149.566406 257.84375 149.332031 258.210938 148.796875L258.042969 148.617188C257.886719 148.785156 257.730469 148.894531 257.519531 148.894531 257.285156 148.894531 257.183594 148.808594 257.183594 148.347656L257.183594 145.816406C257.183594 144.65625 256.726563 144.097656 255.511719 144.097656 254.296875 144.097656 253.546875 144.703125 253.546875 145.324219 253.546875 145.695313 253.792969 145.863281 254.015625 145.863281 254.328125 145.863281 254.507813 145.695313 254.507813 145.347656 254.507813 144.679688 254.617188 144.445313 255.253906 144.445313 255.921875 144.445313 256.257813 144.8125 256.257813 145.785156L256.257813 146.273438C255.296875 146.574219 253.324219 146.867188 253.324219 148.339844 253.324219 149.050781 253.792969 149.589844 254.652344 149.589844 255.367188 149.589844 255.765625 149.277344 256.292969 148.816406zM256.257813 148.484375C255.878906 148.796875 255.476563 148.972656 255.109375 148.972656 254.628906 148.972656 254.304688 148.628906 254.304688 148.070313 254.304688 147.199219 255.242188 146.898438 256.257813 146.644531L256.257813 148.484375M260.242188 144.132813L259.972656 144.132813 258.589844 144.46875 258.589844 144.78125C258.589844 144.78125 258.714844 144.757813 258.9375 144.757813 259.339844 144.757813 259.339844 144.957031 259.339844 145.359375L259.339844 148.425781C259.339844 149.050781 259.257813 149.1875 258.523438 149.1875L258.523438 149.511719 261.3125 149.511719 261.3125 149.1875C260.476563 149.1875 260.265625 149.074219 260.265625 148.371094L260.265625 145.828125C260.53125 145.382813 260.890625 144.914063 261.144531 144.914063 261.28125 144.914063 261.503906 145.292969 261.871094 145.292969 262.117188 145.292969 262.359375 145.113281 262.359375 144.691406 262.359375 144.3125 262.148438 144.066406 261.714844 144.066406 261.179688 144.066406 260.84375 144.457031 260.273438 145.28125L260.242188 145.28125 260.242188 144.132813M265.769531 148.503906C265.492188 148.816406 265.34375 148.964844 264.988281 148.964844 264.554688 148.964844 264.453125 148.695313 264.453125 147.902344L264.453125 144.703125 265.714844 144.703125 265.714844 144.234375 264.453125 144.234375 264.464844 142.707031 264.171875 142.707031C263.773438 143.652344 263.4375 144.121094 262.914063 144.445313L262.914063 144.703125 263.527344 144.703125 263.527344 148.214844C263.527344 149.21875 263.851563 149.621094 264.597656 149.621094 265.3125 149.621094 265.546875 149.285156 265.980469 148.683594L265.769531 148.503906M268.042969 145.503906C268.589844 145.003906 268.992188 144.8125 269.425781 144.8125 270.328125 144.8125 270.453125 145.582031 270.453125 146.496094L270.453125 148.425781C270.453125 148.964844 270.40625 149.1875 269.636719 149.1875L269.636719 149.511719 272.203125 149.511719 272.203125 149.1875C271.5 149.1875 271.378906 148.972656 271.378906 148.382813L271.378906 146.164063C271.378906 145.25 271.164063 144.097656 269.882813 144.097656 269.289063 144.097656 268.777344 144.355469 268.074219 145.015625L268.042969 145.015625 268.042969 141.632813 267.742188 141.632813 266.246094 142.023438 266.246094 142.335938C266.246094 142.335938 266.390625 142.316406 266.570313 142.316406 266.871094 142.316406 267.117188 142.371094 267.117188 142.761719L267.117188 148.472656C267.117188 149.097656 266.914063 149.1875 266.335938 149.1875L266.335938 149.511719 268.867188 149.511719 268.867188 149.1875C268.097656 149.1875 268.042969 149.007813 268.042969 148.425781L268.042969 145.503906M102.761719 96.804688C103.6875 96.558594 104.347656 96.113281 104.347656 95.121094 104.347656 94.015625 103.601563 93.378906 101.613281 93.378906L98.601563 93.378906 98.601563 93.714844C99.503906 93.714844 99.683594 93.839844 99.683594 94.730469L99.683594 99.292969C99.683594 100.21875 99.503906 100.375 98.601563 100.375L98.601563 100.710938 102.039063 100.710938C103.699219 100.710938 104.703125 100.007813 104.703125 98.734375 104.703125 97.519531 103.710938 97.007813 102.761719 96.851563zM100.710938 96.671875L100.710938 93.847656C100.933594 93.828125 101.167969 93.816406 101.378906 93.816406 102.742188 93.816406 103.242188 94.339844 103.242188 95.210938 103.242188 96.226563 102.820313 96.671875 101.46875 96.671875zM100.710938 97.140625L101.492188 97.140625C102.527344 97.140625 103.53125 97.488281 103.53125 98.757813 103.53125 100.175781 102.472656 100.296875 101.515625 100.296875 101.246094 100.296875 100.976563 100.285156 100.710938 100.261719L100.710938 97.140625M107.976563 95.300781C106.472656 95.300781 105.480469 96.394531 105.480469 98.011719 105.480469 99.816406 106.417969 100.820313 107.976563 100.820313 109.429688 100.820313 110.453125 99.839844 110.453125 97.964844 110.453125 96.316406 109.507813 95.300781 107.976563 95.300781zM107.933594 95.722656C108.925781 95.722656 109.429688 96.648438 109.429688 98.019531 109.429688 99.839844 108.9375 100.375 108.023438 100.375 107.0625 100.386719 106.515625 99.640625 106.515625 97.863281 106.515625 96.4375 107.085938 95.722656 107.933594 95.722656M113.777344 95.300781C112.273438 95.300781 111.28125 96.394531 111.28125 98.011719 111.28125 99.816406 112.21875 100.820313 113.777344 100.820313 115.226563 100.820313 116.253906 99.839844 116.253906 97.964844 116.253906 96.316406 115.304688 95.300781 113.777344 95.300781zM113.734375 95.722656C114.726563 95.722656 115.226563 96.648438 115.226563 98.019531 115.226563 99.839844 114.738281 100.375 113.824219 100.375 112.863281 100.386719 112.316406 99.640625 112.316406 97.863281 112.316406 96.4375 112.886719 95.722656 113.734375 95.722656M122.613281 100.710938L122.613281 100.386719C122.144531 100.386719 121.964844 100.355469 121.429688 99.738281L119.46875 97.53125 120.023438 97.070313C121.285156 95.96875 121.484375 95.769531 122.210938 95.769531L122.210938 95.433594 119.800781 95.433594 119.800781 95.769531C120.226563 95.769531 120.347656 95.824219 120.347656 95.96875 120.347656 96.148438 120.191406 96.28125 120.148438 96.324219L118.707031 97.753906 118.640625 97.753906 118.640625 92.832031 118.339844 92.832031 116.890625 93.222656 116.890625 93.527344C116.890625 93.527344 117.113281 93.503906 117.269531 93.503906 117.636719 93.503906 117.714844 93.605469 117.714844 94.070313L117.714844 99.652344C117.714844 100.261719 117.605469 100.386719 116.933594 100.386719L116.933594 100.710938 119.46875 100.710938 119.46875 100.386719C118.765625 100.386719 118.640625 100.261719 118.640625 99.695313L118.640625 98 118.707031 98 120.460938 99.984375C120.515625 100.039063 120.582031 100.152344 120.582031 100.253906 120.582031 100.355469 120.472656 100.386719 120.148438 100.386719L120.148438 100.710938 122.613281 100.710938" />
</svg>